<?xml version="1.0" encoding="utf-8"?>
<!-- Generator: Adobe Illustrator 25.3.1, SVG Export Plug-In . SVG Version: 6.00 Build 0)  -->
<svg version="1.1" id="Layer_1" xmlns="http://www.w3.org/2000/svg" xmlns:xlink="http://www.w3.org/1999/xlink" x="0px" y="0px"
	 viewBox="0 0 202.5 494" style="enable-background:new 0 0 202.5 494;" xml:space="preserve">
<style type="text/css">
	.st0{fill:none;stroke:#FEF5B2;stroke-width:3;stroke-miterlimit:10;}
</style>
<path class="st0" d="M192,498.8c22.2-34.3-9.3-79.1-8.2-86.8c1.2-8.2,4.2-13.6,2.4-16.5s-11.5,7.4-21.9-5.3
	c-10.4-12.8-13.3-44.6-10.3-53.1s7.5-12.2,14-11.8c6.6,0.4,7.4-1.8,6.4-5.1c-1-3.3-6.4-10-1.8-22.3s14.5-46.2-10.3-68
	c-13.5-11.9-32.6-16-45.6-17.5l-5-112c0.4-0.5,3.5-4.3,2.6-15.6c-0.2-2.7-0.5-6.3-0.8-10.4h17.1c0,2,0.2,3.9,1.1,4.4
	c1.4,0.8,5.1,1.2,10.9-1s4.9-7.1,4.9-7.1s0.8-4.9-4.9-7.1c-5.7-2.2-9.5-1.8-10.9-1c-0.9,0.5-1,2.4-1.1,4.4h-17.7
	c-0.4-4.6-0.7-9.3-1.1-13.4h16.9c0,2,0.2,3.9,1.1,4.4c1.4,0.8,5.1,1.2,10.9-1s4.9-7.1,4.9-7.1s0.8-4.9-4.9-7.1
	c-5.7-2.2-9.5-1.8-10.9-1c-0.9,0.5-1.1,2.4-1.1,4.4h-17.5c-0.1-0.7-0.1-1.4-0.2-2c0.6-0.7,1-1.7,1.1-3.3c0,0,2,0.5,1.9-7.4
	c0,0,4.9,2.1,5.6-2.8c-0.1,0,2.7-3.8,0.6-7s-5.8-1.7-5.8-1.7s0.6-4.9-1.4-5.7c-1-0.4-2.1-0.5-2.9-0.5c-0.4,0-0.9,0-1.4,0
	c0,0,0.4-4.8-1-6.7C107,8.2,102,8.3,102,8.3s-5-0.1-5.7,0.8c-1.4,1.9-1,6.7-1,6.7c-0.5-0.1-1-0.1-1.4,0c-0.8,0-1.9,0.1-2.9,0.5
	c-2,0.8-1.4,5.7-1.4,5.7s-3.7-1.5-5.8,1.7c-1.4,2.1-0.6,4.5,0.1,5.9l0,0l0.1,0.2c0.3,0.6,0.6,0.9,0.6,0.9c0,0.1,0,0.1,0,0.2l0.1,0.4
	l0,0c1.1,4.1,5.5,2.2,5.5,2.2c-0.2,7.9,1.9,7.4,1.9,7.4c0.1,1.3,0.4,2.2,0.9,2.9c-0.1,0.7-0.1,1.5-0.2,2.4H75.4c0-2-0.2-3.9-1.1-4.4
	c-1.4-0.8-5.2-1.2-10.9,1s-4.9,7.1-4.9,7.1s-0.9,4.9,4.9,7.1c5.8,2.2,9.5,1.8,10.9,1c0.9-0.5,1-2.4,1.1-4.4h16.8
	c-0.3,4.1-0.7,8.8-1.1,13.4H73.6c0-2-0.2-3.9-1.1-4.4c-1.4-0.8-5.2-1.2-10.9,1c-5.7,2.2-4.9,7.1-4.9,7.1s-0.9,4.9,4.9,7.1
	s9.5,1.8,10.9,1c0.9-0.5,1-2.4,1.1-4.4h17c-0.3,4.1-0.6,7.7-0.8,10.4c-1,12.2,2.6,15.7,2.6,15.7s0-0.1,0.1-0.1l-5,112
	c-9.1,1-21.1,3.4-32.2,8.8c-0.1,0-0.1-0.1-0.2-0.1c-4.7,2.3-9.2,5.1-13.2,8.6c-24.8,21.8-14.9,55.7-10.3,68s-0.8,19-1.8,22.3
	s-0.2,5.5,6.4,5.1s11,3.3,14,11.8s0.1,40.3-10.3,53.1c-10.4,12.8-20.2,2.4-21.9,5.3c-1.8,2.9,1.2,8.3,2.4,16.5S-12.7,469,17.1,505
	c26.5,32.2,85,30.3,85,30.3s44.4,1,74.1-20.4c3.1-2.1,5.5-4.2,7.2-5.9l0,0c1.3-1.2,2.5-2.5,3.7-3.8C189,503.1,190.6,501,192,498.8
	 M130.6,72.2v-3.1c0,0.6,0,1.1,0,1.5S130.6,71.7,130.6,72.2z"/>
</svg>
