<?xml version="1.0" encoding="utf-8"?>
<!-- Generator: Adobe Illustrator 25.3.1, SVG Export Plug-In . SVG Version: 6.00 Build 0)  -->
<svg version="1.1" id="Layer_1" xmlns="http://www.w3.org/2000/svg" xmlns:xlink="http://www.w3.org/1999/xlink" x="0px" y="0px"
	 viewBox="0 0 202.5 494" style="enable-background:new 0 0 202.5 494;" xml:space="preserve">
<style type="text/css">
	.st0{fill:#297AA1;}
	.st1{fill:#FDBA15;}
	.st2{fill:#F5871F;}
	.st3{fill:#444D56;}
	.st4{fill:#ED3227;}
	.st5{fill:#FFFFFF;}
</style>
<g id="XMLID_493_">
	<path id="XMLID_494_" class="st0" d="M120.3,23.7c-2.1-3.2-5.8-1.7-5.8-1.7s0.6-4.9-1.4-5.7c-2-0.8-4.3-0.5-4.3-0.5s0.4-4.8-1-6.7
		c-0.7-0.9-5.7-0.8-5.7-0.8s-5-0.1-5.7,0.8c-1.4,1.9-1,6.7-1,6.7s-2.3-0.3-4.3,0.5c-2,0.8-1.4,5.7-1.4,5.7s-3.7-1.5-5.8,1.7
		c-2.1,3.2,0.8,7,0.8,7c0.8,4.9,5.6,2.8,5.6,2.8c-0.2,7.9,1.9,7.4,1.9,7.4c0.2,3.8,2.8,4.5,2.8,4.5h7.2h7.2c0,0,2.6-0.7,2.8-4.5
		c0,0,2,0.5,1.9-7.4c0,0,4.9,2.1,5.6-2.8C119.6,30.7,122.4,26.9,120.3,23.7z"/>
	<path id="XMLID_603_" class="st1" d="M91.6,270c23.5,60,10.8,105.3-7.2,148.7c-16.5,39.8,83.5,11.5,107.6,80.1
		c22.2-34.3-9.3-79.1-8.2-86.8c1.2-8.2,4.2-13.6,2.4-16.5s-11.5,7.4-21.9-5.3c-10.4-12.8-13.3-44.6-10.3-53.1s7.5-12.2,14-11.8
		c6.6,0.4,7.4-1.8,6.4-5.1s-6.4-10-1.8-22.3c4.6-12.3,14.5-46.2-10.3-68c-22.5-19.7-60.2-18.2-60.2-18.2s-25.4-1-47,9.6
		C67.9,230,81.8,244.8,91.6,270z"/>
	<path id="XMLID_605_" class="st2" d="M102.1,535.3c0,0,56.9,1.3,85-30.1c1.9-2.1,3.5-4.2,4.9-6.4c-24.1-68.6-124.1-40.3-107.6-80.2
		c18-43.3,30.7-88.7,7.2-148.7c-9.8-25.2-23.7-40-36.5-48.8c-4.7,2.3-9.2,5.1-13.2,8.6c-24.8,21.8-14.9,55.7-10.3,68
		s-0.8,19-1.8,22.3s-0.2,5.5,6.4,5.1s11,3.3,14,11.8s0.1,40.3-10.3,53.1c-10.4,12.8-20.2,2.4-21.9,5.3c-1.8,2.9,1.2,8.3,2.4,16.5
		S-12.7,469,17.1,505C43.6,537.2,102.1,535.3,102.1,535.3z"/>
	<path id="XMLID_496_" class="st3" d="M80.1,356.6L80.1,356.6c0.1,0-1.5-2.5-4.2-3.8s-7,0.3-9.6,7.3s-4.1,29-3.4,35.8
		s-3,17.4-7.2,18.1c-3.6,0.6-5-2.6-5.3-3.6c1.5-0.6,2.6-2.1,2.6-3.9c0-2.3-1.9-4.2-4.2-4.2s-4.2,1.9-4.2,4.2c0,1.1,0.4,2.2,1.2,2.9
		l0,0c0.7,1.6,6.1,9.2,13.6,5s9-15,9.1-29.9s1-24.7,4.1-28.3c2.3-2.7,4.4-0.5,5.3,0.9c-0.6,0.5-1.1,1.2-1.1,2.1
		c0,1.4,1.2,2.6,2.6,2.6s2.6-1.2,2.6-2.6C81.9,357.9,81.1,357,80.1,356.6z"/>
	<path id="XMLID_497_" class="st3" d="M84,29.6c0,0,2.7-2.8,2.5-7.8c0,0,1.5-0.4,3.2,0.2c0,0-0.5,9-4.9,9.3l-0.1-0.7L84,29.6z"/>
	<path id="XMLID_498_" class="st3" d="M95.4,15.8c0,0-1.2,15.8-5.1,17.6c0,0-1.4,0.6-3.1,0.4c0,0,6.1-2.9,5.7-17.9
		C92.9,15.9,94.2,15.6,95.4,15.8z"/>
	<rect id="XMLID_499_" x="75.4" y="46.2" class="st3" width="18.1" height="7.4"/>
	<path id="XMLID_500_" class="st3" d="M74.4,41.8c-1.4-0.8-5.2-1.2-10.9,1s-4.9,7.1-4.9,7.1s-0.9,4.9,4.9,7.1s9.5,1.8,10.9,1
		s1-5.4,1-8.1S75.8,42.6,74.4,41.8z"/>
	<rect id="XMLID_501_" x="73.6" y="67" class="st3" width="18.1" height="7.4"/>
	<path id="XMLID_502_" class="st3" d="M72.6,62.6c-1.4-0.8-5.2-1.2-10.9,1c-5.7,2.2-4.9,7.1-4.9,7.1s-0.9,4.9,4.9,7.1
		s9.5,1.8,10.9,1s1-5.4,1-8.1S74,63.4,72.6,62.6z"/>
	<path id="XMLID_503_" class="st3" d="M124.1,356.6L124.1,356.6c-0.1,0,1.5-2.5,4.2-3.8c2.7-1.3,7,0.3,9.6,7.3s4.1,29,3.4,35.8
		s3.1,17.4,7.2,18.1c3.6,0.6,5-2.6,5.3-3.6c-1.5-0.6-2.6-2.1-2.6-3.9c0-2.3,1.9-4.2,4.2-4.2s4.2,1.9,4.2,4.2c0,1.1-0.4,2.2-1.2,2.9
		l0,0c-0.7,1.6-6.1,9.2-13.6,5s-9-15-9.1-29.9s-1-24.7-4.1-28.3c-2.3-2.7-4.4-0.5-5.3,0.9c0.6,0.5,1.1,1.2,1.1,2.1
		c0,1.4-1.2,2.6-2.6,2.6s-2.6-1.2-2.6-2.6C122.3,357.9,123.1,357,124.1,356.6z"/>
	<polygon id="XMLID_504_" class="st4" points="109.3,45.3 102.1,45.3 94.9,45.3 81.9,338.3 102.1,338.3 122.3,338.3 	"/>
	<path id="XMLID_505_" class="st3" d="M120.2,29.6c0,0-2.7-2.8-2.5-7.8c0,0-1.5-0.4-3.2,0.2c0,0,0.5,9,4.9,9.3l0.1-0.7L120.2,29.6z"
		/>
	<path id="XMLID_506_" class="st3" d="M108.8,15.8c0,0,1.2,15.8,5.1,17.6c0,0,1.4,0.6,3.1,0.4c0,0-6.1-2.9-5.7-17.9
		C111.3,15.9,110,15.6,108.8,15.8z"/>
	<rect id="XMLID_507_" x="110.7" y="46.2" class="st3" width="18.1" height="7.4"/>
	<path id="XMLID_508_" class="st3" d="M129.8,41.8c1.4-0.8,5.2-1.2,10.9,1s4.9,7.1,4.9,7.1s0.9,4.9-4.9,7.1s-9.5,1.8-10.9,1
		c-1.4-0.8-1-5.4-1-8.1S128.3,42.6,129.8,41.8z"/>
	<rect id="XMLID_509_" x="112.5" y="67" class="st3" width="18.1" height="7.4"/>
	<path id="XMLID_510_" class="st3" d="M131.6,62.6c1.4-0.8,5.2-1.2,10.9,1c5.7,2.2,4.9,7.1,4.9,7.1s0.9,4.9-4.9,7.1s-9.5,1.8-10.9,1
		c-1.4-0.8-1-5.4-1-8.1S130.2,63.4,131.6,62.6z"/>
	<path id="XMLID_511_" class="st4" d="M110.7,478.6c0.8-16.4,12.1-31.1,10.8-51.6c0,0-6.3,1.8-19.4,1.7C89,428.8,82.7,427,82.7,427
		c-1.4,20.5,10,35.2,10.8,51.6s-3.8,37.9-2.4,43.3s11,4.9,11,4.9s9.6,0.5,11-4.9S110,495,110.7,478.6z"/>
	<g id="XMLID_512_">
		<g>
			<polygon id="XMLID_20_" class="st3" points="118.3,436.9 117.3,436.8 119.1,384 105.2,45.4 106.2,45.3 120.1,384 			"/>
		</g>
	</g>
	<path id="XMLID_514_" class="st5" d="M123.4,381.3c-0.8,0-21.3,0-21.3,0s-20.5,0-21.3,0s-2.9,1.1-1.1,3.1s2.8,3.1,2.8,3.1h10.4
		c0,0-0.4-1.3,1.7-1.5s7.5-0.2,7.5-0.2s5.4,0,7.5,0.2s1.7,1.5,1.7,1.5h10.4c0,0,1-1.1,2.8-3.1S124.2,381.3,123.4,381.3z"/>
	<g id="XMLID_515_">
		<g>
			<polygon id="XMLID_33_" class="st3" points="107.1,439.7 106.1,439.7 107.4,381.3 103.3,45.4 104.3,45.3 108.4,381.3 			"/>
		</g>
	</g>
	<path id="XMLID_517_" class="st3" d="M183.4,509c0,0,9.4-16.6-2.6-25.3c-12-8.7-19,3-22.2,6.3s-10,7-17.8,3.8s-29-3.3-26.5,15.1
		s17.9,24.7,34.6,19.2S178.3,514.4,183.4,509z"/>
	<g id="XMLID_518_">
		<g>
			<polygon id="XMLID_35_" class="st3" points="85.9,436.9 84.1,384.1 98,45.3 99,45.4 85.1,384.1 86.9,436.8 			"/>
		</g>
	</g>
	<g id="XMLID_520_">
		<g>
			<polygon id="XMLID_37_" class="st3" points="97.1,439.7 95.8,381.3 99.9,45.3 100.9,45.4 96.8,381.3 98.1,439.7 			"/>
		</g>
	</g>
	<path id="XMLID_522_" class="st0" d="M93.3,40.8h3.9c0,0-1.6,54.6-4.8,59.7c0,0-3.6-3.5-2.6-15.7S93.3,40.8,93.3,40.8z"/>
	<path id="XMLID_523_" class="st0" d="M110.8,40.8h-3.9c0,0,1.6,54.6,4.8,59.7c0,0,3.6-3.5,2.6-15.7S110.8,40.8,110.8,40.8z"/>
	<path id="XMLID_531_" class="st5" d="M119.7,433.3c0,0-16.8,3.5-35.1,0c0,0-0.2,3.2,0.8,6.1c0,0,18.8,2.5,33.1,0
		C118.4,439.3,119.4,436.8,119.7,433.3z"/>
</g>
</svg>
