<?xml version="1.0" encoding="utf-8"?>
<!-- Generator: Adobe Illustrator 25.3.1, SVG Export Plug-In . SVG Version: 6.00 Build 0)  -->
<svg version="1.1" id="Layer_1" xmlns="http://www.w3.org/2000/svg" xmlns:xlink="http://www.w3.org/1999/xlink" x="0px" y="0px"
	 viewBox="0 0 51.4 437.6" style="enable-background:new 0 0 51.4 437.6;" xml:space="preserve">
<style type="text/css">
	.st0{fill:none;stroke:#FEF5B2;stroke-width:4;stroke-miterlimit:10;}
</style>
<g>
	<path class="st0" d="M8.3,177.9v4H8.2c-1.5,0-2.8,1.2-2.8,2.8c0,1.5,1.2,2.8,2.8,2.8h0.2l1.9,204.3c-2.8-0.2-4.6,3.4-2.4,5.4
		c0.4,0.3,0.8,0.6,1.3,0.7c0.4,0.1,0.7,0.1,1.1,0.2v24.3c-1.1,0-1.7-0.1-1.9,0c-0.5,0.2-1,0.9,0.6,1.8c0.9,0.5,1.7,0.5,0.2,0.2
		c-3.3-0.7-5.4,4.6-2.9,7.6c0.4,0.5,0.9,0.9,1.4,1c1.6,0.5,5.3,1.1,5.3,1.1c0.1,18.4-2,28.2-2,28.2c0.4,0.7,1,1.3,1.8,1.8
		c-1.5-1-1.9-1.8-1.9-1.8c-2.5,4.1-4.6,6-4.6,6c0.1,0.1,0.2,0.3,0.3,0.4C2.5,470,0,471.6,0,473.4c0,3.9,11.5,7,25.7,7
		s25.7-3.1,25.7-7c0-2-3-3.8-7.8-5c0,0,0,0,0-0.1c0,0-2.1-1.9-4.6-6c0,0-0.1,0.2-0.3,0.4c0.1-0.1,0.2-0.3,0.3-0.4
		c0,0-2.1-9.9-2-28.2c0,0,3.7-0.6,5.3-1.1c0.5-0.1,1-0.5,1.4-1c2.4-3.1,0.3-8.3-2.9-7.6c-0.4,0.1-0.1,0,0.2-0.2
		c1.6-0.9,1.1-1.6,0.6-1.8c-0.1-0.1-0.8,0-1.8,0v-24.3c0.4-0.1,0.8-0.1,1.2-0.2c0.5-0.1,0.9-0.3,1.3-0.7c2.2-2.1,0.3-5.8-2.6-5.4
		l1.9-204.3h0.2c1.5,0,2.8-1.2,2.8-2.8s-1.2-2.8-2.8-2.8h-0.1v-4"/>
	<path class="st0" d="M41.7,177.8c0,0,4.5-1.2,5.7-7.7s-2.5-12.2-4-15.4c-1.4-3.2-3.4-12.6-3.4-12.8c0-0.3,0.1-1.4,0.1-3.1
		c0.4,0,0.7,0,0.8,0c0.5-0.2,2.6-1.3,0.2-2.7c-0.2-0.1-0.5-0.2-0.8-0.3c0.6-13,2.1-43.5,3.2-63.5c0.5,0.1,0.8,0.1,0.9,0.1
		c0.6-0.2,2.3-1.8-0.4-3.2c-0.1-0.1-0.2-0.1-0.4-0.2c0.1-1.1,0.1-2.1,0.2-3.1c0.3,0,0.5,0.1,0.6,0c0.6-0.2,2.3-1.8-0.4-3.2l0,0
		c0.1-1.1,0.1-2.2,0.2-3.1c1-0.1,1.8-0.5,1.8-1.3c0,0,0,0,0-0.1c0.1-1.2-0.5-2.4-1.5-3.1c0-0.1,0-0.2,0-0.2
		c0.8-11,3.3-20.1,1.5-28.5c-1.6-7.2-6.6-12.1-7.6-19.1c-0.1-1.1-0.9-2-1.9-2.3C34.3,4.4,30.2,3.5,25,3.5s-9.3,0.9-11.4,1.6
		c-1,0.3-1.8,1.2-1.9,2.3c-1,7-5.9,11.9-7.6,19.1C2.2,34.9,4.7,44,5.6,55c0,0.1,0,0.2,0,0.3c-1,0.7-1.6,1.8-1.4,3c0,0,0,0,0,0.1
		c0.1,0.8,0.7,1.1,1.7,1.3c0.1,0.9,0.1,2,0.2,3.1H6c-2.7,1.4-1.1,3-0.4,3.2c0.1,0,0.3,0,0.7,0c0.1,1,0.1,2,0.2,3
		c-0.2,0.1-0.3,0.1-0.4,0.2c-2.7,1.4-1.1,3-0.4,3.2c0.1,0,0.5,0,1-0.1c1,19.9,2.5,50.4,3.1,63.4c-0.4,0.1-0.8,0.2-1,0.4
		c-2.3,1.4-0.3,2.5,0.2,2.7c0.1,0,0.5,0,1,0c0.1,1.7,0.1,2.8,0.1,3.1c0,0.2-2,9.6-3.5,12.8s-5.1,8.9-4,15.4c1.2,6.5,5.7,7.7,5.7,7.7
		"/>
</g>
</svg>
