<?xml version="1.0" encoding="utf-8"?>
<!-- Generator: Adobe Illustrator 25.3.1, SVG Export Plug-In . SVG Version: 6.00 Build 0)  -->
<svg version="1.1" id="Layer_1" xmlns="http://www.w3.org/2000/svg" xmlns:xlink="http://www.w3.org/1999/xlink" x="0px" y="0px"
	 viewBox="0 0 51.4 437.6" style="enable-background:new 0 0 51.4 437.6;" xml:space="preserve">
<style type="text/css">
	.st0{fill:#ED3227;}
	.st1{fill:#FCB813;}
	.st2{fill:#297AA1;}
	.st3{fill:#444D56;}
</style>
<g id="XMLID_525_">
	<ellipse id="XMLID_397_" class="st0" cx="25.7" cy="473.4" rx="25.7" ry="7"/>
	<path id="XMLID_399_" class="st1" d="M25,466.9L25,466.9c0.2,0,11.1,0.2,14-4.6c0,0-2.1-9.9-2-28.2l-12-2.8l0,0l-12,2.8
		c0.1,18.4-2,28.2-2,28.2C13.9,467.1,25,466.9,25,466.9z"/>
	<polygon id="XMLID_400_" class="st1" points="25,423.3 39.8,423.3 39.8,392.4 25,392.4 25,392.4 10.3,392.4 10.3,423.3 	"/>
	<path id="XMLID_401_" class="st1" d="M44.5,55c0.8-11,3.3-20.1,1.5-28.5c-1.6-7.2-6.6-12.1-7.6-19.1c-0.1-1.1-0.9-2-1.9-2.3
		C34.3,4.4,30.2,3.5,25,3.5s-9.3,0.9-11.4,1.6c-1,0.3-1.8,1.2-1.9,2.3c-1,7-5.9,11.9-7.6,19.1C2.2,34.9,4.7,44,5.6,55s4.4,87,4.4,87
		h15h15C40,141.9,43.6,66,44.5,55z"/>
	<path id="XMLID_402_" class="st0" d="M25,58.4c0,0,7.9,0.2,11.5,0.5c3.5,0.3,9.3,2,9.5-0.5c0,0,0,0,0-0.1c0.1-1.8-1.2-3.4-3-3.7
		c-6.9-1-17.9-1-17.9-1s-11,0-17.9,1c-1.8,0.3-3.2,1.9-3,3.7c0,0,0,0,0,0.1c0.2,2.4,5.9,0.8,9.5,0.5C17.1,58.6,25,58.4,25,58.4z"/>
	<path id="XMLID_403_" class="st0" d="M25,434.8L25,434.8c0.2,0,10.7,0.1,17.3-1.8c0.5-0.1,1-0.5,1.4-1c2.4-3.1,0.3-8.3-2.9-7.6
		c-1.5,0.3-3.1,0.6-4.7,0.7c-3.5,0.2-11.1,0.3-11.1,0.3l0,0c-0.1,0-7.6-0.2-11.1-0.3c-1.5,0-3.2-0.4-4.7-0.7
		c-3.3-0.7-5.4,4.6-2.9,7.6c0.4,0.5,0.9,0.9,1.4,1C14.4,434.9,25,434.8,25,434.8z"/>
	<path id="XMLID_404_" class="st0" d="M25,64.1c9.3-0.2,18.8,2.1,19.4,1.9c0.6-0.2,2.3-1.8-0.4-3.2C41.3,61.4,25,61,25,61
		S8.7,61.4,6,62.8s-1.1,3-0.4,3.2C6.2,66.2,15.8,64,25,64.1z"/>
	<path id="XMLID_405_" class="st0" d="M25,138.2L25,138.2c8,0,15.4,0.8,15.9,0.6s2.6-1.3,0.2-2.7c-2.3-1.4-16.2-1.4-16.2-1.4l0,0
		c-0.2,0-13.9,0-16.2,1.4s-0.3,2.5,0.2,2.7C9.6,139,17,138.2,25,138.2z"/>
	<path id="XMLID_406_" class="st0" d="M25,70.5c9.3-0.2,18.8,2.1,19.4,1.9c0.6-0.2,2.3-1.8-0.4-3.2c-2.7-1.4-19-1.8-19-1.8
		S8.7,67.7,6,69.2c-2.7,1.4-1.1,3-0.4,3.2C6.2,72.6,15.8,70.3,25,70.5z"/>
	<path id="XMLID_407_" class="st2" d="M25,425.3L25,425.3c0.2,0,13.7,0.2,16-1.1c1.6-0.9,1.1-1.6,0.6-1.8c-0.5-0.2-8.5,0.5-16.6,0.4
		l0,0c-8,0.1-16-0.5-16.6-0.4c-0.5,0.2-1,0.9,0.6,1.8C11.3,425.5,25,425.3,25,425.3z"/>
	<path id="XMLID_408_" class="st3" d="M33.9,91.4c-0.7-5.4-0.5-17-0.5-17H25h-8.3c0,0,0.2,11.5-0.5,17c-0.7,5.4,2.7,12.2,8.8,12.9
		C31.1,103.5,34.6,96.8,33.9,91.4z"/>
	<path id="XMLID_409_" class="st0" d="M25,177.8h16.7c0,0,4.5-1.2,5.7-7.7s-2.5-12.2-4-15.4c-1.4-3.2-3.4-12.8-3.4-12.8H25l0,0H10
		c0,0-2,9.6-3.5,12.8s-5.1,8.9-4,15.4c1.2,6.5,5.7,7.7,5.7,7.7L25,177.8L25,177.8z"/>
	<path id="XMLID_410_" class="st1" d="M25,393.3L25,393.3c8.2,0.2,14.7-0.8,14.7-0.8l2-214.6H25l0,0H8.3l2,214.6
		C10.3,392.4,16.8,393.5,25,393.3z"/>
	<path id="XMLID_411_" class="st0" d="M25,187.5h16.8c1.5,0,2.8-1.2,2.8-2.8s-1.2-2.8-2.8-2.8H25l0,0H8.2c-1.5,0-2.8,1.2-2.8,2.8
		c0,1.5,1.2,2.8,2.8,2.8H25L25,187.5z"/>
	<path id="XMLID_412_" class="st0" d="M25,476c0.2,0,14.3-0.3,18.6-7.7c0,0-2.1-1.9-4.6-6c0,0-2.1,4.4-14.1,4.6l0,0
		c-11.9-0.2-14-4.6-14-4.6c-2.5,4.1-4.6,6-4.6,6C10.8,475.7,25,476,25,476L25,476z"/>
	<circle id="XMLID_413_" class="st3" cx="26.4" cy="213.6" r="4.2"/>
	<circle id="XMLID_414_" class="st3" cx="26.4" cy="245.9" r="4.2"/>
	<circle id="XMLID_415_" class="st3" cx="26.4" cy="277.5" r="4.2"/>
	<circle id="XMLID_416_" class="st3" cx="26.4" cy="310.9" r="4.2"/>
	<circle id="XMLID_417_" class="st3" cx="26.4" cy="342.5" r="4.2"/>
	
		<ellipse id="XMLID_418_" transform="matrix(1.850897e-02 -0.9998 0.9998 1.850897e-02 -345.8839 397.6543)" class="st3" cx="29.6" cy="375" rx="3.8" ry="3.8"/>
	<circle id="XMLID_419_" class="st3" cx="21.7" cy="376.4" r="2.3"/>
	<circle id="XMLID_420_" class="st3" cx="28.2" cy="414.6" r="3.8"/>
	<circle id="XMLID_421_" class="st3" cx="20.4" cy="415.3" r="2.3"/>
	<path id="XMLID_437_" class="st0" d="M25,399.1L25,399.1c0.2,0,9.9,0,16-1.2c0.5-0.1,0.9-0.3,1.3-0.7c2.2-2.1,0.3-5.9-2.7-5.4
		c-1.4,0.2-2.9,0.7-4.3,0.9c-3.2,0.4-10.2,0.6-10.2,0.6l0,0c-0.1,0-7.1-0.2-10.2-0.6c-1.4-0.2-2.9-0.6-4.3-0.9c-3-0.5-5,3.3-2.7,5.4
		c0.4,0.3,0.8,0.6,1.3,0.7C15.2,399.1,25,399.1,25,399.1z"/>
</g>
</svg>
