<?xml version="1.0" encoding="utf-8"?>
<!-- Generator: Adobe Illustrator 25.3.1, SVG Export Plug-In . SVG Version: 6.00 Build 0)  -->
<svg version="1.1" id="Layer_1" xmlns="http://www.w3.org/2000/svg" xmlns:xlink="http://www.w3.org/1999/xlink" x="0px" y="0px"
	 viewBox="0 0 176.4 343.2" style="enable-background:new 0 0 176.4 343.2;" xml:space="preserve">
<style type="text/css">
	.st0{fill:#297AA1;stroke:#FEF5B2;stroke-width:4;stroke-miterlimit:10;}
	.st1{fill:#FFFFFF;}
	.st2{fill:#444D56;}
	.st3{fill:#FCB813;}
	.st4{fill:#ED2524;}
	.st5{fill:#F5851F;}
	.st6{fill:#FFFBFC;}
</style>
<g id="XMLID_438_">
	<path id="XMLID_439_" class="st0" d="M172.8,13.9v358.6c0,5.9-4.8,10.8-10.8,10.8H13.6c-5.9,0-10.8-4.8-10.8-10.8V13.9
		c0-6,4.8-10.8,10.8-10.8h148.5C168,3.1,172.8,7.9,172.8,13.9z"/>
	<rect id="XMLID_440_" x="87.7" y="23.1" class="st1" width="85" height="285.2"/>
	<path id="XMLID_441_" class="st2" d="M153.4,352.5v15.4c0,0.7-0.6,1.3-1.3,1.3H99.8c-0.7,0-1.3-0.6-1.3-1.3v-15.4
		c0-0.7,0.6-1.3,1.3-1.3h52.3C152.8,351.2,153.4,351.8,153.4,352.5z"/>
	<path id="XMLID_442_" class="st3" d="M100.6,355.8v8.7c0,1.6,1.3,2.8,2.8,2.8h14v-14.4h-14C101.9,353,100.6,354.2,100.6,355.8z"/>
	<rect id="XMLID_443_" x="117.5" y="352.9" class="st4" width="16.9" height="14.4"/>
	<rect id="XMLID_444_" x="134.4" y="352.9" class="st5" width="16.9" height="14.4"/>
	<path id="XMLID_445_" class="st2" d="M153.4,321.6V337c0,0.7-0.6,1.3-1.3,1.3H99.8c-0.7,0-1.3-0.6-1.3-1.3v-15.4
		c0-0.7,0.6-1.3,1.3-1.3h52.3C152.8,320.3,153.4,320.8,153.4,321.6z"/>
	<path id="XMLID_446_" class="st3" d="M100.6,324.9v8.7c0,1.6,1.3,2.8,2.8,2.8h14V322h-14C101.9,322,100.6,323.3,100.6,324.9z"/>
	<rect id="XMLID_447_" x="117.5" y="322" class="st4" width="16.9" height="14.4"/>
	<rect id="XMLID_448_" x="134.4" y="322" class="st5" width="16.9" height="14.4"/>
	<path id="XMLID_449_" class="st2" d="M71.3,267.3v0.3c0,0.6-0.4,1-1,1H16.8c-0.6,0-1-0.4-1-1v-0.3c0-0.6,0.4-1,1-1h53.4
		C70.8,266.3,71.3,266.7,71.3,267.3z"/>
	<path id="XMLID_450_" class="st2" d="M71.3,230.1v0.3c0,0.6-0.4,1-1,1H16.8c-0.6,0-1-0.4-1-1v-0.3c0-0.6,0.4-1,1-1h53.4
		C70.8,229.1,71.3,229.5,71.3,230.1z"/>
	<path id="XMLID_451_" class="st3" d="M63.2,259.8V275c0,0.9-0.8,1.7-1.7,1.7H57c-0.9,0-1.7-0.8-1.7-1.7v-15.2
		c0-0.9,0.8-1.7,1.7-1.7h4.5C62.5,258.1,63.2,258.9,63.2,259.8z"/>
	<path id="XMLID_452_" class="st3" d="M38.9,222.7v15.2c0,0.9-0.8,1.7-1.7,1.7h-4.5c-0.9,0-1.7-0.8-1.7-1.7v-15.2
		c0-0.9,0.8-1.7,1.7-1.7h4.5C38.1,221,38.9,221.8,38.9,222.7z"/>
	<path id="XMLID_453_" class="st2" d="M71.3,193v0.3c0,0.6-0.4,1-1,1H16.8c-0.6,0-1-0.4-1-1V193c0-0.6,0.4-1,1-1h53.4
		C70.8,192,71.3,192.5,71.3,193z"/>
	<path id="XMLID_454_" class="st3" d="M52.7,185.6v15.2c0,0.9-0.8,1.7-1.7,1.7h-4.5c-0.9,0-1.7-0.8-1.7-1.7v-15.2
		c0-0.9,0.8-1.7,1.7-1.7H51C52,183.9,52.7,184.7,52.7,185.6z"/>
	<rect id="XMLID_455_" x="87.8" y="263.2" class="st2" width="55.8" height="10.7"/>
	<rect id="XMLID_456_" x="87.8" y="283.3" class="st2" width="55.8" height="10.7"/>
	<rect id="XMLID_457_" x="87.8" y="119.9" class="st2" width="55.8" height="10.7"/>
	<rect id="XMLID_458_" x="87.8" y="139.9" class="st2" width="55.8" height="10.7"/>
	<rect id="XMLID_459_" x="87.8" y="201.6" class="st2" width="55.8" height="10.7"/>
	<rect id="XMLID_460_" x="87.8" y="181.3" class="st2" width="55.8" height="10.7"/>
	<rect id="XMLID_461_" x="87.7" y="221.6" class="st2" width="55.8" height="10.7"/>
	<rect id="XMLID_462_" x="87.8" y="58.5" class="st2" width="55.8" height="10.7"/>
	<rect id="XMLID_463_" x="87.8" y="38.2" class="st2" width="55.8" height="10.7"/>
	<rect id="XMLID_464_" x="87.8" y="78.5" class="st2" width="55.8" height="10.7"/>
	<rect id="XMLID_465_" x="143.6" y="288" class="st2" width="29.2" height="1.4"/>
	<rect id="XMLID_466_" x="143.6" y="267.9" class="st2" width="29.2" height="1.4"/>
	<rect id="XMLID_467_" x="143.6" y="226.5" class="st2" width="29.2" height="1.4"/>
	<rect id="XMLID_468_" x="143.6" y="206.5" class="st2" width="29.2" height="1.4"/>
	<rect id="XMLID_469_" x="87.7" y="247.3" class="st2" width="85" height="1.4"/>
	<rect id="XMLID_470_" x="143.6" y="186.3" class="st2" width="29.2" height="1.4"/>
	<rect id="XMLID_471_" x="87.7" y="165.7" class="st2" width="85" height="1.4"/>
	<rect id="XMLID_472_" x="143.6" y="83.2" class="st2" width="29.2" height="1.4"/>
	<rect id="XMLID_473_" x="143.6" y="63.2" class="st2" width="29.2" height="1.4"/>
	<rect id="XMLID_474_" x="143.6" y="43" class="st2" width="29.2" height="1.4"/>
	<rect id="XMLID_475_" x="143.6" y="145" class="st2" width="29.2" height="1.4"/>
	<rect id="XMLID_476_" x="143.6" y="124.8" class="st2" width="29.2" height="1.4"/>
	<rect id="XMLID_477_" x="87.8" y="104.2" class="st2" width="85" height="1.4"/>
	<circle id="XMLID_478_" class="st3" cx="46.5" cy="338.2" r="34.2"/>
	<circle id="XMLID_479_" class="st6" cx="46.6" cy="338.2" r="30.5"/>
	<circle id="XMLID_480_" class="st2" cx="46.4" cy="338.2" r="10"/>
	<g id="XMLID_481_">
		<g>
			<path id="XMLID_30_" class="st3" d="M61.6,145.8c0,9.7-7.9,17.6-17.6,17.6s-17.6-7.9-17.6-17.6s7.9-17.6,17.6-17.6
				S61.6,136.1,61.6,145.8z M38.1,145.8c0,3.3,2.7,5.9,5.9,5.9c3.3,0,5.9-2.7,5.9-5.9c0-3.3-2.7-5.9-5.9-5.9
				C40.8,139.9,38.1,142.5,38.1,145.8z"/>
		</g>
	</g>
	<g id="XMLID_485_">
		<g>
			<path id="XMLID_26_" class="st4" d="M60.7,95.6c0,9.7-7.9,17.6-17.6,17.6s-17.6-7.9-17.6-17.6S33.4,78,43.1,78
				S60.7,85.9,60.7,95.6z M37.1,95.6c0,3.3,2.7,5.9,5.9,5.9s5.9-2.7,5.9-5.9c0-3.3-2.7-5.9-5.9-5.9S37.1,92.3,37.1,95.6z"/>
		</g>
	</g>
	<g id="XMLID_489_">
		<g>
			<path id="XMLID_23_" class="st5" d="M60.7,46.2c0,9.7-7.9,17.6-17.6,17.6S25.5,56,25.5,46.2s7.9-17.6,17.6-17.6
				S60.7,36.5,60.7,46.2z M37.1,46.2c0,3.3,2.7,5.9,5.9,5.9s5.9-2.7,5.9-5.9c0-3.3-2.7-5.9-5.9-5.9S37.1,43,37.1,46.2z"/>
		</g>
	</g>
</g>
</svg>
