<?xml version="1.0" encoding="utf-8"?>
<!-- Generator: Adobe Illustrator 25.3.1, SVG Export Plug-In . SVG Version: 6.00 Build 0)  -->
<svg version="1.1" id="Layer_2" xmlns="http://www.w3.org/2000/svg" xmlns:xlink="http://www.w3.org/1999/xlink" x="0px" y="0px"
	 viewBox="0 0 731.6 1400" style="enable-background:new 0 0 731.6 1400;" xml:space="preserve">
<style type="text/css">
	.st0{fill:#FEBB15;}
	.st1{fill:#F6881F;}
	.st2{fill:#444D56;}
	.st3{fill:#EE3227;}
</style>
<g id="XMLID_597_">
	<path id="XMLID_826_" class="st0" d="M-7.1,826.2c156.1-243.3,314.5-61.8,358-286.9c32.7-168.5-22.5-371.9-51.6-474.3h-93.7H81.5
		c-16.7,0-31.2,11.6-34.9,28.3l-209.2,1018.3h81.4C-89.2,1033.9-76.9,934.4-7.1,826.2z"/>
	<path id="XMLID_827_" class="st1" d="M363.3,92.6c-3.6-16.7-18.2-28.3-34.9-28.3h-30.5c29.8,103.1,84.3,305.8,51.6,474.3
		C305.9,763.7,147.6,582.1-8.6,825.5c-69.7,108.2-82.1,207.7-74.1,284.7h7.3c0,0,94.4-185.2,278.9-185.2
		c183.8,0,264.4,185.2,264.4,185.2H571L363.3,92.6z"/>
	<path id="XMLID_595_" class="st2" d="M207.1,982.4H202c-15.3,0-27.6-12.3-27.6-27.6V239.3c0-15.3,12.3-27.6,27.6-27.6h5.1
		c15.3,0,27.6,12.3,27.6,27.6v715.4C234.7,970,222.4,982.4,207.1,982.4z"/>
	<path id="XMLID_803_" class="st2" d="M356.8,1043.4l-5.1-2.2c-13.8-5.8-20.3-21.8-14.5-36.3l298.5-716.2
		c5.8-13.8,21.8-20.3,36.3-14.5l5.1,2.2c13.8,5.8,20.3,21.8,14.5,36.3l-298.5,716.2C386.5,1042.6,370.6,1049.2,356.8,1043.4z"/>
	<path id="XMLID_600_" class="st2" d="M111.3,327.9v-5.1c0-15.3,12.3-27.6,27.6-27.6h137.3c15.3,0,27.6,12.3,27.6,27.6v5.1
		c0,15.3-12.3,27.6-27.6,27.6H138.9C123.6,355.5,111.3,343.2,111.3,327.9z"/>
	<path id="XMLID_800_" class="st2" d="M108.4,481.2v-5.1c0-15.3,12.3-27.6,27.6-27.6h137.3c15.3,0,27.6,12.3,27.6,27.6v5.1
		c0,15.3-12.3,27.6-27.6,27.6H136C120.7,508.8,108.4,496.4,108.4,481.2z"/>
	<path id="XMLID_801_" class="st2" d="M108.4,634.4v-5.1c0-15.3,12.3-27.6,27.6-27.6h137.3c15.3,0,27.6,12.3,27.6,27.6v5.1
		c0,15.3-12.3,27.6-27.6,27.6H136C120.7,661.3,108.4,649,108.4,634.4z"/>
	<path id="XMLID_802_" class="st2" d="M108.4,786.2v-5.1c0-15.3,12.3-27.6,27.6-27.6h137.3c15.3,0,27.6,12.3,27.6,27.6v5.1
		c0,15.3-12.3,27.6-27.6,27.6H136C120.7,813.8,108.4,801.5,108.4,786.2z"/>
	<circle id="XMLID_598_" class="st3" cx="613.2" cy="433.2" r="118.4"/>
	<path id="XMLID_799_" class="st3" d="M623.3,1357.1l-50.8-246.2H469.3c0,0-80.6-185.2-264.4-185.2S-74,1110.9-74,1110.9h-89.3
		l-50.8,246.2c-4.4,21.8,12.3,42.9,34.9,42.9h383.5h383.5C611,1399.3,627.7,1378.9,623.3,1357.1z"/>
</g>
</svg>
