<?xml version="1.0" encoding="utf-8"?>
<!-- Generator: Adobe Illustrator 25.3.1, SVG Export Plug-In . SVG Version: 6.00 Build 0)  -->
<svg version="1.1" id="Layer_1" xmlns="http://www.w3.org/2000/svg" xmlns:xlink="http://www.w3.org/1999/xlink" x="0px" y="0px"
	 viewBox="0 0 364.35 122.07" style="enable-background:new 0 0 364.35 122.07;" xml:space="preserve">
<style type="text/css">
	.st0{fill:#255E63;}
</style>
<g>
	<g>
		<path class="st0" d="M240.79,79.36c-1.4-2.54-5.64-2.89-9.46-0.79c-2.96,1.63-4.79,4.25-4.84,6.53h-0.01l0.48,36.3l1.42-0.02
			l-0.44-33.24c1.9,1.43,5.32,1.37,8.45-0.37C240.22,85.67,242.19,81.91,240.79,79.36z"/>
	</g>
	<g>
		<path class="st0" d="M122.84,73.29c-1.07-2.01-4.38-2.32-7.4-0.72c-2.33,1.24-3.79,3.27-3.84,5.06h-0.01V97.7H93.64V80.02
			c1.47,1.14,4.14,1.13,6.61-0.2c3.02-1.61,4.59-4.53,3.52-6.54c-1.08-2.01-4.38-2.32-7.4-0.72c-2.33,1.24-3.79,3.27-3.85,5.06
			h-0.01v28.39h0.01v0.02h20.17v-4.24h-0.01v-2.43h0.01v-1.65h-0.01V80.02c1.47,1.14,4.15,1.13,6.61-0.2
			C122.32,78.22,123.91,75.29,122.84,73.29z M111.59,101.78H93.64v-2.43h17.94V101.78z"/>
	</g>
	<g>
		<path class="st0" d="M331.14,31.64V25.2l0.02-3.16l-24.03,7.9v-0.05l-0.05,0.07l-26.97,8.86v5.87h0.01v3.74h-0.01v2.89h0.01v21.88
			c-1.97-1.52-5.55-1.5-8.86,0.26c-4.03,2.15-6.14,6.07-4.72,8.75c1.43,2.68,5.86,3.11,9.9,0.96c3.12-1.66,5.08-4.38,5.15-6.77h0.01
			V50.79l24.03-8.01v21.9c-1.97-1.52-5.55-1.5-8.86,0.26c-4.04,2.15-6.15,6.07-4.72,8.75c1.43,2.68,5.86,3.11,9.9,0.96
			c3.12-1.66,5.08-4.38,5.15-6.77h0.01V42.27l22.53-7.51v22.82c-1.97-1.52-5.55-1.5-8.86,0.26c-4.04,2.15-6.15,6.07-4.72,8.75
			c1.43,2.68,5.86,3.11,9.9,0.96c3.12-1.66,5.08-4.38,5.15-6.77h0.01V33.11l0.02-1.48L331.14,31.64z M281.6,47.91v-3.75l24.03-8.01
			v3.86L281.6,47.91z M307.13,39.53v-3.88l22.53-7.51v3.99L307.13,39.53z"/>
	</g>
	<g>
		<path class="st0" d="M54.76,66.04c-2.15-1.7-4.61-2.55-7.17-2.58V48.4c8.08-5.47,15.41-12.84,14.75-20.73
			c-0.95-11.42-7.58-14.1-7.58-14.1l-0.33,0.15c-0.47,0.2-11.55,5.25-10.18,27.84c0.01,0.2,0.02,0.4,0.03,0.6
			c-2.3,1.8-4.9,3.57-7.79,5.33c-13.57,8.2-20.07,19.15-17.39,29.26c2.05,7.73,9.34,13.09,18.09,13.32
			c0.15,0.02,3.39,0.43,7.42-0.03c-0.17,8.66-0.37,14.71-0.37,14.87c0,0.08,0.23,8.62-8.2,10.38c-2.27,0.47-4.43,0.4-6.39-0.13
			c-2.34-1.26-3.15-3.28-3.29-5.24c0.88,0.43,1.85,0.68,2.89,0.68c3.62,0,6.56-2.94,6.56-6.56c0-3.23-2.34-5.9-5.4-6.46
			c-3.48-0.78-7.58,0.67-8.96,5.11c-1.15,3.68-0.4,7.35,2.07,10.07c1.92,2.12,4.62,3.41,7.64,3.77c-0.18,0.01-0.27,0.01-0.27,0.01
			c5.79,0.55,9.52-0.6,13-3.09c3.65-2.62,3.73-8.24,3.73-8.24V89.52c5.59-1.25,9.45-4.12,11.21-8.34
			C61.01,75.89,59.35,69.66,54.76,66.04z M55.06,76.06c0.58,2.3,0.34,4.28-0.48,5.97c-1.26,2.14-3.84,3.79-6.98,4.78v-5.58V68.61
			C50.86,69.39,53.95,71.75,55.06,76.06z M47.6,34.79c0.79-9.36,8.71-16.49,8.71-16.49c0.56,1.65,0.93,3.79,0.56,6.32
			c-0.69,4.83-3.85,9.81-9.28,14.72V34.79z M27.46,82.68c-7.45-9.52-1.11-23.15,9.52-28.22c2.37-1.14,5-2.53,7.65-4.15
			c0.13,4.24,0.19,8.78,0.22,13.39c-2.04,0.43-4.09,1.37-6.08,2.81c-0.07,0.05-7.62,5.48-2.56,13.21c0,0,1.88,2.34,5.45,2.15
			c0,0-5.11-2.36-3.71-8.88c0.63-2.9,3.58-4.59,6.9-4.68c0,6.78-0.08,13.45-0.19,19.23C38.43,88.63,31.12,87.34,27.46,82.68z"/>
	</g>
	<g>
		<g>
			<path class="st0" d="M261.07,106.05c-27.62,0-59.52-4.65-95.06-15.54C112.62,74.15,69.7,76.96,43.1,82.2
				C14.3,87.87-2.08,97.5-2.24,97.6l-0.57-0.96c0.17-0.09,16.7-9.84,45.69-15.54c26.73-5.26,69.85-8.08,123.45,8.35
				c102.02,31.26,173.87,10.98,199.83-22.99l0.89,0.68C349.94,89.53,313.13,106.05,261.07,106.05z"/>
		</g>
		<g>
			<path class="st0" d="M-2.19,96.38l-0.66-0.9c0.17-0.11,16.7-12.07,45.7-19.97c26.74-7.28,69.87-12.51,123.49,3.92
				c46.88,14.36,91.56,18.07,129.21,10.71c31.12-6.08,56.85-19.91,70.62-37.93l0.89,0.68c-13.92,18.23-39.91,32.2-71.29,38.34
				c-37.82,7.4-82.69,3.69-129.75-10.74c-53.34-16.35-96.24-11.16-122.82-3.93C14.37,84.4-2.04,96.25-2.19,96.38z"/>
		</g>
		<g>
			<path class="st0" d="M-2.16,94.54l-0.72-0.85c0.17-0.14,16.7-14.16,45.7-24.1c26.75-9.16,69.89-16.64,123.52-0.2
				c46.42,14.23,91.09,17.07,129.19,8.23c30.72-7.13,56.47-21.86,70.63-40.41l0.89,0.68c-14.33,18.76-40.31,33.63-71.27,40.82
				c-38.28,8.89-83.15,6.04-129.77-8.25c-53.35-16.35-96.24-8.92-122.84,0.19C14.37,80.52-2.01,94.41-2.16,94.54z"/>
		</g>
		<g>
			<path class="st0" d="M-2.13,92.83l-0.78-0.79c0.17-0.16,16.7-16.27,45.7-28.28c26.75-11.07,69.9-20.82,123.56-4.38
				c45.91,14.07,90.57,15.79,129.17,4.99c30.16-8.44,55.91-24.35,70.66-43.66l0.89,0.68c-14.89,19.5-40.86,35.56-71.25,44.06
				c-38.8,10.85-83.69,9.13-129.79-5c-53.31-16.34-96.18-6.66-122.76,4.32C14.44,76.68-1.97,92.67-2.13,92.83z"/>
		</g>
		<g>
			<path class="st0" d="M-2.11,91.57l-0.84-0.74c0.17-0.19,16.69-18.51,45.69-32.68c26.76-13.09,69.92-25.24,123.59-8.78
				c45.47,13.93,90.12,14.54,129.14,1.77c29.1-9.53,55.53-27.06,70.68-46.9l0.89,0.68c-15.29,20.01-41.92,37.69-71.23,47.29
				c-39.24,12.85-84.14,12.24-129.81-1.75c-53.32-16.34-96.2-4.27-122.77,8.72C14.44,73.23-1.94,91.4-2.11,91.57z"/>
		</g>
	</g>
	<g>
		<g>
			<path class="st0" d="M99.14,48.96c1.09,2.04-0.52,5-3.58,6.64c-3.06,1.64-6.42,1.31-7.51-0.73c-1.09-2.04,0.52-5.01,3.58-6.64
				S98.05,46.92,99.14,48.96z"/>
		</g>
		<g>
			<rect x="98.34" y="21.62" class="st0" width="1.13" height="28.84"/>
		</g>
	</g>
	<g>
		<path class="st0" d="M148.11,60.25c-3.62-0.01-6.57,1.94-6.58,4.36c0,2.41,2.94,4.37,6.56,4.38c3.62,0.01,6.57-1.94,6.58-4.36
			C154.68,62.21,151.75,60.26,148.11,60.25z M152.59,65.85c-0.4,1.45-2.73,2.08-5.2,1.39c-2.48-0.68-4.17-2.4-3.77-3.85
			c0.4-1.45,2.73-2.07,5.2-1.4C151.31,62.67,152.99,64.4,152.59,65.85z"/>
	</g>
	<g>
		<path class="st0" d="M197.02,42.89c-1.64-0.93-2.56-1.83-3.08-2.54c-0.44-0.56-0.78-1.2-0.97-1.92h-0.62v29.13
			c-1.65-1.28-4.64-1.26-7.42,0.22c-3.37,1.8-5.14,5.09-3.95,7.32c1.2,2.25,4.91,2.61,8.28,0.8c2.61-1.39,4.25-3.67,4.31-5.66h0.01
			V43.2c1.47,1.87,5.08,2.87,6.31,4.96c1.3,2.19,0.48,5.48,0.48,5.48C203.18,46.86,200.13,44.64,197.02,42.89z"/>
	</g>
</g>
</svg>
