<?xml version="1.0" encoding="utf-8"?>
<!-- Generator: Adobe Illustrator 25.3.1, SVG Export Plug-In . SVG Version: 6.00 Build 0)  -->
<svg version="1.1" id="Layer_1" xmlns="http://www.w3.org/2000/svg" xmlns:xlink="http://www.w3.org/1999/xlink" x="0px" y="0px"
	 viewBox="0 0 182.9 297.7" style="enable-background:new 0 0 182.9 297.7;" xml:space="preserve">
<style type="text/css">
	.st0{fill:#FCB813;}
	.st1{fill:#F5871F;}
	.st2{fill:#EF4E3F;}
	.st3{fill:#ED2724;}
	.st4{fill:#444D56;}
	.st5{fill:#441323;}
</style>
<g id="XMLID_807_">
	<path id="XMLID_864_" class="st0" d="M22.2,5.3c-10.6,5.2-14.9,17.6-16.7,26c-0.9,4.4,2.5,8.5,7,8.5l0,0c3.4,0,6.4-2.4,7-5.8
		c1.2-6.3,4.2-15.5,11-15.1c0,0,0,0,0.1,0C37.1,17.6,51,19,46.3,59.3C40.4,111.2,32,268.6,33.7,283.6s30.2,34.5,43.7,31.7
		c21.9-4.5,40.3-27.6,43-64.2c2.1-28.7,3.4-38.8,17-48.5l-33.9-33c0,0-13.7,19.9-18.5,53.5s2.9,52.8-8.9,55s-14.2-9.8-12.7-32.4
		c1.4-22.6,2.2-210.5,1-224.1C63.2,8,39-2.8,22.2,5.3z"/>
	<path id="XMLID_865_" class="st1" d="M120.4,251.2c-2.7,36.7-21.1,59.7-43,64.2c-13.5,2.8-42-16.7-43.7-31.7s6.7-172.4,12.6-224.3
		C50.9,19.1,37,17.6,30.6,19c10.3,0.8,11.2,8.9,9.8,32.9s-16.8,217.9-17,235.9s11.9,43.1,47.8,47.8c35.9,4.7,53-25.2,57.4-39.6
		c4.3-14.4-2.4-29.8,7.4-49.2s22.8-23.3,22.8-23.3l-21.3-20.7C123.9,212.4,122.6,222.5,120.4,251.2z"/>
	<path id="XMLID_862_" class="st2" d="M119.2,154.2c-4.6-4.6-12-4.6-16.6,0l0,0c-4.6,4.6-4.6,12,0,16.6l33.1,33.1
		c1.5-1.2,11.4-8.9,19.8-13.4L119.2,154.2z"/>
	<path id="XMLID_866_" class="st3" d="M135.8,203.9l24,24c4.6,4.6,12,4.6,16.6,0l0,0c4.6-4.6,4.6-12,0-16.6l-20.8-20.8
		C147.2,195,137.3,202.7,135.8,203.9z"/>
	<circle id="XMLID_857_" class="st4" cx="45.3" cy="220.7" r="5.4"/>
	<circle id="XMLID_859_" class="st4" cx="46.1" cy="203.1" r="5.4"/>
	<circle id="XMLID_860_" class="st4" cx="46.4" cy="184.9" r="5.4"/>
	<path id="XMLID_858_" class="st5" d="M41.9,123.6L41.9,123.6c0,2.2-1.7,3.9-3.8,3.9H14c-2.1,0-3.8-1.7-3.8-3.8v-0.1
		c0-2.1,1.7-3.8,3.8-3.8h24.1C40.2,119.8,41.9,121.5,41.9,123.6z"/>
	<path id="XMLID_863_" class="st5" d="M45,97.2L45,97.2c0,2.2-1.7,3.9-3.8,3.9H17.1c-2.1,0-3.8-1.7-3.8-3.8v-0.1
		c0-2.1,1.7-3.8,3.8-3.8h24.1C43.3,93.4,45,95.1,45,97.2z"/>
	<path id="XMLID_861_" class="st5" d="M17.4,115.3V132c0,2-1.6,3.6-3.6,3.6l0,0c-2,0-3.6-1.6-3.6-3.6v-16.7c0-2,1.6-3.6,3.6-3.6l0,0
		C15.8,111.7,17.4,113.3,17.4,115.3z"/>
</g>
</svg>
