<?xml version="1.0" encoding="utf-8"?>
<!-- Generator: Adobe Illustrator 25.3.1, SVG Export Plug-In . SVG Version: 6.00 Build 0)  -->
<svg version="1.1" id="Layer_1" xmlns="http://www.w3.org/2000/svg" xmlns:xlink="http://www.w3.org/1999/xlink" x="0px" y="0px"
	 viewBox="0 0 182.9 297.7" style="enable-background:new 0 0 182.9 297.7;" xml:space="preserve">
<style type="text/css">
	.st0{fill:none;stroke:#FEF5B2;stroke-width:3;stroke-miterlimit:10;}
</style>
<path class="st0" d="M30.6,19c10.3,0.8,11.2,8.9,9.8,32.9c-0.3,5.7-1.5,21.1-3,41.5H17.1c-2.1,0-3.8,1.7-3.8,3.8v0.1
	c0,2.1,1.7,3.8,3.8,3.8h19.7c-0.4,5.9-0.9,12.2-1.4,18.7h-18v-4.5c0-2-1.6-3.6-3.6-3.6s-3.6,1.6-3.6,3.6v8.3v0.1v8.3
	c0,2,1.6,3.6,3.6,3.6s3.6-1.6,3.6-3.6v-4.5h17.4c-4.9,65-11.3,148.8-11.4,160.3c-0.2,18,11.9,43.1,47.8,47.8
	c35.9,4.7,53-25.2,57.4-39.6c4.3-14.4-2.4-29.8,7.4-49.2c7.2-14.3,16.2-20.2,20.4-22.3l3.4,3.4c4.6,4.6,12,4.6,16.6,0s4.6-12,0-16.6
	l-20.8-20.8c0,0,0,0-0.1,0l-36.3-36.3c-4.6-4.6-12-4.6-16.6,0s-4.6,12,0,16.6l0.1,0.1c-3,4.9-13.6,23.6-17.7,52.2
	c-4.8,33.6,2.9,52.8-8.9,55s-14.2-9.8-12.7-32.4c1.4-22.6,2.2-210.5,1-224.1C63.2,8,39-2.8,22.2,5.3c-10.6,5.2-14.9,17.6-16.7,26
	c-0.9,4.4,2.5,8.5,7,8.5c3.4,0,6.4-2.4,7-5.8C20.7,27.7,23.7,18.5,30.6,19C30.5,18.9,30.5,18.9,30.6,19"/>
</svg>
